<?xml version="1.0" encoding="UTF-8"?>
<svg id="Layer_1" data-name="Layer 1" xmlns="http://www.w3.org/2000/svg" viewBox="40.173203125 39.48320068359375 419.6535632324219 421.0336596679688">
  <defs>
    <style>
      .cls-1 {
        fill: #fff;
        fill-rule: evenodd;
      }
    </style>
  </defs>
  <g id="Scanova-Logo_with-Background" data-name="Scanova-Logo with-Background">
    <g id="Group-Copy">
      <g id="Group-2">
        <path id="Combined-Shape-Copy" class="cls-1" d="M250,452.42c-111.41,0-201.73-90.63-201.73-202.42S138.59,47.58,250,47.58s201.73,90.63,201.73,202.42-90.32,202.42-201.73,202.42ZM164.65,225.64c6.1,59.07,53.05,105.97,112.01,111.77v-111.77h-112.01ZM164.58,200.2h112.08v-112.5c-59.2,5.83-106.29,53.09-112.08,112.5ZM413.46,200.2c-5.76-59.17-52.49-106.29-111.35-112.43v112.43h111.35ZM413.38,225.64h-111.28v111.7c58.62-6.12,105.2-52.87,111.28-111.7Z"/>
      </g>
    </g>
  </g>
</svg>