<?xml version="1.0" encoding="UTF-8"?>
<svg id="Layer_1" data-name="Layer 1" xmlns="http://www.w3.org/2000/svg" viewBox="16.670391845703122 15.470400619506835 558.65927734375 561.0591796875">
  <defs>
    <style>
      .cls-1 {
        fill: #c0392b;
        fill-rule: evenodd;
        stroke-width: 0px;
      }
    </style>
  </defs>
  <g id="Combined-Shape-Copy">
    <path class="cls-1" d="m296,565.74c-148.31,0-268.54-120.77-268.54-269.74S147.69,26.26,296,26.26s268.54,120.77,268.54,269.74-120.23,269.74-268.54,269.74Zm-113.62-302.2c8.12,78.71,70.61,141.21,149.1,148.95v-148.95h-149.1Zm-.1-33.91h149.2V79.72c-78.81,7.77-141.49,70.75-149.2,149.92Zm331.3,0c-7.67-78.85-69.88-141.63-148.23-149.82v149.82h148.23Zm-.1,33.91h-148.14v148.85c78.03-8.15,140.05-70.46,148.14-148.85Z"/>
  </g>
</svg>